<svg xmlns="http://www.w3.org/2000/svg" width="158" height="32" viewBox="0 0 158 32">
    <g fill="none" fill-rule="evenodd">
        <g fill-rule="nonzero">
            <g>
                <g>
                    <g>
                        <g>
                            <path fill="#FFF" d="M45.604 25.036L45.604 19.678 32.07 6.982 22.477 11.164 22.477 11.407 24.28 15.402 41.886 21.545 41.923 28.956 41.923 28.956 41.942 31.962 43.819 29.479 45.604 30.245z" transform="translate(-155 -1786) translate(0 1398) translate(40 60) translate(115 328)"/>
                            <path fill="#00D8AC" d="M28.575.15L.055 14.132c.13.074.242.112.335.168 2.696 1.325 5.373 2.65 8.069 3.958l20.06 9.801h.093l13.274-6.515c-.167-.112-.279-.187-.409-.262-3.941-2.427-7.883-4.854-11.824-7.262-.223-.13-.54-.187-.8-.168-.632.037-1.226-.075-1.728-.467-.725-.579-.707-1.512 0-2.091.78-.635 2.119-.635 2.881.019.205.168.39.41.446.653.075.355.298.486.577.616 4.703 2.297 9.407 4.612 14.11 6.927.13.074.26.13.465.242l11.508-5.638L28.575.15z" transform="translate(-155 -1786) translate(0 1398) translate(40 60) translate(115 328)"/>
                        </g>
                        <g fill="#FFF">
                            <path d="M9.386 9.292L9.386 11.837 0 11.837 0 .167 9.163.167 9.163 2.713 3.271 2.713 3.271 4.683 8.456 4.683 8.456 7.154 3.271 7.154 3.271 9.292zM11.226.167h5.52c3.865 0 6.523 2.249 6.523 5.835 0 3.587-2.658 5.835-6.524 5.835h-5.52V.167zm5.39 9.05c1.988 0 3.326-1.19 3.326-3.196 0-2.026-1.338-3.196-3.327-3.196h-2.081v6.41h2.081v-.018zM24.904 6.634V.167h3.308v6.374c0 2.007.837 2.806 2.212 2.806 1.375 0 2.193-.799 2.193-2.806V.167h3.253v6.467c0 3.494-2.045 5.445-5.483 5.445-3.438 0-5.483-1.951-5.483-5.445zM40.088 1.245L40.088 5.835 46.129 5.835 46.129 6.894 40.088 6.894 40.088 11.856 38.843 11.856 38.843.186 46.853.186 46.853 1.245 40.088 1.245zM49.307 6.857V.167h1.226v6.634c0 2.77 1.301 4.033 3.569 4.033 2.286 0 3.587-1.264 3.587-4.033V.167h1.208v6.69c0 3.345-1.803 5.092-4.795 5.092-2.993 0-4.795-1.728-4.795-5.092zM72.39.167L72.39 11.837 71.367 11.837 63.859 2.36 63.859 11.837 62.632 11.837 62.632.167 63.655.167 71.182 9.645 71.182.167zM76.181.167h4.758c3.735 0 6.263 2.397 6.263 5.835s-2.528 5.835-6.263 5.835H76.18V.167zm4.702 10.611c3.104 0 5.111-1.97 5.111-4.776s-2.007-4.776-5.11-4.776h-3.458v9.552h3.457z" transform="translate(-155 -1786) translate(0 1398) translate(40 60) translate(115 328) translate(70 10)"/>
                        </g>
                    </g>
                </g>
            </g>
        </g>
    </g>
</svg>
